<svg xmlns="http://www.w3.org/2000/svg" width="14" height="14" viewBox="0 0 14 14">
    <path fill="#A2A2A2" fill-rule="evenodd" d="M8.366 9.32a.319.319 0 0 0 .45.452l2.545-2.546A.317.317 0 0 0 11.455 7a.317.317 0 0 0-.094-.226L8.816 4.23a.318.318 0 0 0-.543.226c0 .089.035.168.093.225l2.002 2.002H.318a.319.319 0 0 0 0 .636h10.05L8.366 9.32zM13.682 0H2.227a.319.319 0 0 0-.318.318v4.773a.319.319 0 0 0 .636 0V.636h10.819v12.728H2.545V8.909a.319.319 0 0 0-.636 0v4.773c0 .175.143.318.318.318h11.455a.319.319 0 0 0 .318-.318V.318A.319.319 0 0 0 13.682 0z"/>
</svg>
