<svg xmlns="http://www.w3.org/2000/svg" width="16" height="16" viewBox="0 0 16 16" fill="#F5D17C">
        
            <path d="M17.643 116H15.5a.5.5 0 0 1-.5-.5v-3.657a.5.5 0 0 1 .5-.5h2.143a.5.5 0 0 1 .5.5v3.657a.5.5 0 0 1-.5.5zM21.928 116h-2.143a.5.5 0 0 1-.5-.5v-10.32a.5.5 0 0 1 .5-.5h2.143a.5.5 0 0 1 .5.5v10.32a.5.5 0 0 1-.5.5zM26.214 116h-2.143a.5.5 0 0 1-.5-.5v-6.901a.5.5 0 0 1 .5-.5h2.143a.5.5 0 0 1 .5.5v6.901a.5.5 0 0 1-.5.5zM30.5 116h-2.143a.5.5 0 0 1-.5-.5v-15a.5.5 0 0 1 .5-.5H30.5a.5.5 0 0 1 .5.5v15a.5.5 0 0 1-.5.5z"/>
</svg>
