<svg xmlns="http://www.w3.org/2000/svg" width="73" height="13" viewBox="0 0 73 13"><script xmlns="" type="text/javascript" charset="utf-8" id="zm-extension"/>
  <g fill="#C7C7C7" fill-rule="evenodd">
    <polygon points="6.5 10.779 2.483 13 3.25 8.297 0 4.966 4.491 4.279 6.5 0 8.509 4.279 13 4.966 9.75 8.297 10.517 13"/>
    <polygon points="21.5 10.779 17.483 13 18.25 8.297 15 4.966 19.491 4.279 21.5 0 23.509 4.279 28 4.966 24.75 8.297 25.517 13"/>
    <polygon points="36.5 10.779 32.483 13 33.25 8.297 30 4.966 34.491 4.279 36.5 0 38.509 4.279 43 4.966 39.75 8.297 40.517 13"/>
    <polygon points="51.5 10.779 47.483 13 48.25 8.297 45 4.966 49.491 4.279 51.5 0 53.509 4.279 58 4.966 54.75 8.297 55.517 13"/>
    <polygon points="66.5 10.779 62.483 13 63.25 8.297 60 4.966 64.491 4.279 66.5 0 68.509 4.279 73 4.966 69.75 8.297 70.517 13"/>
  </g>
</svg>