<svg xmlns="http://www.w3.org/2000/svg" width="12" height="16" viewBox="0 0 12 16">
    <g fill="#5D9EE4" fill-rule="nonzero">
        <path d="M5.978 7.825c1.736 0 3.143-1.752 3.143-3.912C9.121 1.752 8.659 0 5.978 0 3.296 0 2.834 1.752 2.834 3.913c0 2.16 1.408 3.912 3.144 3.912zM.047 14.231c-.006-.973-.012-.274 0 0zM11.915 14.282c.019-.15.006-1.045 0 0z"/>
        <path d="M11.908 13.641c-.058-3.764-.538-4.837-4.21-5.516 0 0-.516.675-1.72.675-1.205 0-1.722-.675-1.722-.675C.626 8.797.116 9.853.05 13.52c-.006.299-.009.315-.01.28l.001.395S.915 16 5.978 16c5.062 0 5.936-1.806 5.936-1.806v-.292a2.483 2.483 0 0 1-.006-.261z"/>
    </g>
</svg>
